<svg width="186" height="39" viewBox="0 0 186 39" fill="none" xmlns="http://www.w3.org/2000/svg">
<g clip-path="url(#clip0_2_18)">
<path d="M32.85 29.0062L27.0281 7.26562C26.8733 6.68944 26.4959 6.19836 25.979 5.90037C25.4622 5.60237 24.8481 5.52187 24.2719 5.67656L19.9266 6.84374L19.7859 6.88593C19.5763 6.61097 19.3062 6.38801 18.9964 6.23436C18.6867 6.08072 18.3457 6.00052 18 5.99999H13.5C13.1041 6.00106 12.7157 6.10786 12.375 6.30937C12.0343 6.10786 11.6459 6.00106 11.25 5.99999H6.75C6.15326 5.99999 5.58097 6.23705 5.15901 6.659C4.73705 7.08096 4.5 7.65326 4.5 8.24999V30.75C4.5 31.3467 4.73705 31.919 5.15901 32.341C5.58097 32.7629 6.15326 33 6.75 33H11.25C11.6459 32.9989 12.0343 32.8921 12.375 32.6906C12.7157 32.8921 13.1041 32.9989 13.5 33H18C18.5967 33 19.169 32.7629 19.591 32.341C20.0129 31.919 20.25 31.3467 20.25 30.75V16.7437L24.1594 31.3266C24.2868 31.8071 24.5697 32.2319 24.9641 32.5347C25.3584 32.8374 25.8419 33.0011 26.3391 33C26.5332 32.9966 26.7264 32.9731 26.9156 32.9297L31.2609 31.7625C31.8371 31.6076 32.3282 31.2303 32.6262 30.7134C32.9242 30.1965 33.0047 29.5825 32.85 29.0062ZM24.8484 7.85624L25.7344 11.1047L21.3891 12.2719L20.5031 9.02343L24.8484 7.85624ZM18 8.24999V25.125H13.5V8.24999H18ZM11.25 8.24999V11.625H6.75V8.24999H11.25ZM18 30.75H13.5V27.375H18V30.75ZM30.6844 29.5828L26.3391 30.75L25.4531 27.4875L29.8125 26.3203L30.6844 29.5828Z" fill="#00BA44"/>
</g>
<path d="M42.192 27.5L47.424 10.988H53.112L58.368 27.5H54.144L53.16 24.26H47.28L46.32 27.5H42.192ZM48.168 21.116H52.248L50.28 14.588H50.112L48.168 21.116ZM60.0583 27.5V9.668H63.9463V27.5H60.0583ZM66.9255 32.276V15.26H70.5735L70.6695 16.748H70.8855C71.1415 16.284 71.4455 15.932 71.7975 15.692C72.1655 15.452 72.5735 15.292 73.0215 15.212C73.4695 15.116 73.9175 15.068 74.3655 15.068C75.0855 15.068 75.6935 15.164 76.1895 15.356C76.7015 15.548 77.1175 15.884 77.4375 16.364C77.7735 16.828 78.0135 17.468 78.1575 18.284C78.3175 19.1 78.3975 20.124 78.3975 21.356C78.3975 22.572 78.3175 23.588 78.1575 24.404C78.0135 25.22 77.7815 25.868 77.4615 26.348C77.1415 26.828 76.7255 27.172 76.2135 27.38C75.7175 27.588 75.1095 27.692 74.3895 27.692C73.9255 27.692 73.4775 27.652 73.0455 27.572C72.6135 27.492 72.2215 27.348 71.8695 27.14C71.5335 26.916 71.2375 26.604 70.9815 26.204H70.7655V32.276H66.9255ZM72.6375 24.524C73.0695 24.524 73.4135 24.492 73.6695 24.428C73.9255 24.364 74.1095 24.236 74.2215 24.044C74.3495 23.836 74.4295 23.524 74.4615 23.108C74.5095 22.692 74.5335 22.116 74.5335 21.38C74.5335 20.644 74.5095 20.068 74.4615 19.652C74.4295 19.22 74.3495 18.908 74.2215 18.716C74.1095 18.508 73.9255 18.38 73.6695 18.332C73.4135 18.268 73.0695 18.236 72.6375 18.236C72.1735 18.236 71.8135 18.3 71.5575 18.428C71.3175 18.54 71.1335 18.74 71.0055 19.028C70.9095 19.284 70.8455 19.612 70.8135 20.012C70.7815 20.396 70.7655 20.852 70.7655 21.38C70.7655 21.924 70.7815 22.388 70.8135 22.772C70.8455 23.156 70.9015 23.46 70.9815 23.684C71.1095 24.004 71.3015 24.228 71.5575 24.356C71.8135 24.468 72.1735 24.524 72.6375 24.524ZM80.9646 27.5V9.668H84.8046V16.676H85.0206C85.2606 16.276 85.5486 15.964 85.8846 15.74C86.2366 15.5 86.6286 15.332 87.0606 15.236C87.4926 15.14 87.9646 15.092 88.4766 15.092C89.2926 15.092 89.9406 15.196 90.4206 15.404C90.9166 15.596 91.2926 15.892 91.5486 16.292C91.8046 16.692 91.9726 17.188 92.0526 17.78C92.1486 18.372 92.1966 19.06 92.1966 19.844V27.5H88.3326V21.02C88.3326 20.364 88.3166 19.852 88.2846 19.484C88.2526 19.1 88.1806 18.82 88.0686 18.644C87.9566 18.468 87.7806 18.364 87.5406 18.332C87.3166 18.284 87.0126 18.26 86.6286 18.26C86.2286 18.26 85.9006 18.308 85.6446 18.404C85.4046 18.484 85.2206 18.628 85.0926 18.836C84.9806 19.044 84.9006 19.34 84.8526 19.724C84.8206 20.092 84.8046 20.556 84.8046 21.116V27.5H80.9646ZM98.1203 27.692C97.3523 27.692 96.7043 27.572 96.1763 27.332C95.6483 27.092 95.2483 26.7 94.9763 26.156C94.7203 25.612 94.5923 24.9 94.5923 24.02C94.5923 23.092 94.6963 22.356 94.9043 21.812C95.1283 21.252 95.5203 20.852 96.0803 20.612C96.6403 20.372 97.4323 20.252 98.4563 20.252C98.6003 20.252 98.8003 20.26 99.0563 20.276C99.3283 20.276 99.6323 20.284 99.9683 20.3C100.304 20.3 100.64 20.308 100.976 20.324C101.312 20.324 101.616 20.332 101.888 20.348V19.892C101.888 19.428 101.848 19.068 101.768 18.812C101.704 18.556 101.568 18.372 101.36 18.26C101.168 18.132 100.872 18.06 100.472 18.044C100.072 18.012 99.5443 17.996 98.8883 17.996C98.5203 17.996 98.1123 18.004 97.6643 18.02C97.2323 18.036 96.8003 18.06 96.3683 18.092C95.9523 18.108 95.6003 18.132 95.3123 18.164V15.452C95.9683 15.34 96.7043 15.252 97.5203 15.188C98.3523 15.108 99.2243 15.068 100.136 15.068C101.16 15.068 102.008 15.132 102.68 15.26C103.368 15.388 103.92 15.588 104.336 15.86C104.752 16.116 105.056 16.444 105.248 16.844C105.456 17.244 105.592 17.716 105.656 18.26C105.72 18.804 105.752 19.42 105.752 20.108V27.5H102.056L101.96 26.06H101.768C101.464 26.54 101.112 26.9 100.712 27.14C100.312 27.38 99.8883 27.532 99.4403 27.596C98.9923 27.66 98.5523 27.692 98.1203 27.692ZM99.9443 24.956C100.232 24.956 100.48 24.94 100.688 24.908C100.912 24.86 101.096 24.788 101.24 24.692C101.4 24.58 101.528 24.444 101.624 24.284C101.704 24.108 101.768 23.892 101.816 23.636C101.864 23.38 101.888 23.076 101.888 22.724V22.268H99.6562C99.2563 22.268 98.9523 22.3 98.7443 22.364C98.5363 22.412 98.3923 22.54 98.3123 22.748C98.2483 22.94 98.2163 23.244 98.2163 23.66C98.2163 24.012 98.2563 24.284 98.3363 24.476C98.4163 24.668 98.5763 24.796 98.8163 24.86C99.0723 24.924 99.4483 24.956 99.9443 24.956ZM109.65 27.5V10.988H111.714V25.676H119.418V27.5H109.65ZM122.18 11.804V9.668H124.268V11.804H122.18ZM122.228 27.5V15.26H124.196V27.5H122.228ZM134.346 27.692C133.786 27.692 133.242 27.644 132.714 27.548C132.186 27.468 131.714 27.292 131.298 27.02C130.882 26.732 130.554 26.308 130.314 25.748H130.17L130.098 27.5H128.322V9.668H130.29V16.82H130.41C130.634 16.372 130.93 16.02 131.298 15.764C131.682 15.508 132.13 15.332 132.642 15.236C133.154 15.124 133.738 15.068 134.394 15.068C135.274 15.068 136.002 15.172 136.578 15.38C137.154 15.572 137.61 15.9 137.946 16.364C138.282 16.828 138.514 17.468 138.642 18.284C138.786 19.1 138.858 20.132 138.858 21.38C138.858 22.628 138.786 23.66 138.642 24.476C138.498 25.292 138.258 25.932 137.922 26.396C137.586 26.86 137.122 27.196 136.53 27.404C135.954 27.596 135.226 27.692 134.346 27.692ZM133.578 25.964C134.314 25.964 134.898 25.916 135.33 25.82C135.778 25.708 136.114 25.5 136.338 25.196C136.562 24.892 136.714 24.436 136.794 23.828C136.874 23.22 136.914 22.404 136.914 21.38C136.914 20.356 136.874 19.548 136.794 18.956C136.714 18.348 136.562 17.892 136.338 17.588C136.114 17.268 135.778 17.06 135.33 16.964C134.898 16.868 134.314 16.82 133.578 16.82C132.794 16.82 132.17 16.924 131.706 17.132C131.242 17.324 130.914 17.636 130.722 18.068C130.53 18.484 130.41 18.964 130.362 19.508C130.314 20.036 130.29 20.66 130.29 21.38C130.29 22.084 130.306 22.708 130.338 23.252C130.386 23.78 130.506 24.252 130.698 24.668C130.906 25.116 131.242 25.444 131.706 25.652C132.17 25.86 132.794 25.964 133.578 25.964ZM142.478 27.5V15.26H144.23L144.326 17.612H144.47C144.678 16.924 144.974 16.396 145.358 16.028C145.742 15.66 146.206 15.412 146.75 15.284C147.294 15.14 147.894 15.068 148.55 15.068V16.988C147.446 16.988 146.598 17.164 146.006 17.516C145.414 17.868 145.006 18.412 144.782 19.148C144.558 19.884 144.446 20.812 144.446 21.932V27.5H142.478ZM154.344 27.692C153.448 27.692 152.696 27.588 152.088 27.38C151.496 27.172 151.048 26.812 150.744 26.3C150.456 25.788 150.312 25.068 150.312 24.14C150.312 23.212 150.416 22.484 150.624 21.956C150.848 21.412 151.232 21.028 151.776 20.804C152.32 20.58 153.08 20.468 154.056 20.468C154.216 20.468 154.464 20.476 154.8 20.492C155.152 20.492 155.552 20.5 156 20.516C156.448 20.516 156.896 20.524 157.344 20.54C157.808 20.54 158.232 20.548 158.616 20.564V19.796C158.616 19.076 158.568 18.516 158.472 18.116C158.392 17.7 158.216 17.396 157.944 17.204C157.672 16.996 157.288 16.868 156.792 16.82C156.312 16.756 155.672 16.724 154.872 16.724C154.52 16.724 154.104 16.74 153.624 16.772C153.144 16.788 152.672 16.82 152.208 16.868C151.76 16.9 151.4 16.94 151.128 16.988V15.404C151.736 15.292 152.416 15.212 153.168 15.164C153.936 15.1 154.728 15.068 155.544 15.068C156.408 15.068 157.136 15.124 157.728 15.236C158.336 15.332 158.824 15.492 159.192 15.716C159.576 15.94 159.864 16.236 160.056 16.604C160.248 16.972 160.376 17.42 160.44 17.948C160.52 18.476 160.56 19.092 160.56 19.796V27.5H158.808L158.736 25.772H158.592C158.336 26.332 157.968 26.756 157.488 27.044C157.024 27.316 156.512 27.492 155.952 27.572C155.392 27.652 154.856 27.692 154.344 27.692ZM155.064 26.084C155.528 26.084 155.96 26.06 156.36 26.012C156.76 25.948 157.112 25.836 157.416 25.676C157.72 25.516 157.96 25.276 158.136 24.956C158.312 24.62 158.432 24.26 158.496 23.876C158.576 23.476 158.616 23.012 158.616 22.484V21.86H154.536C153.912 21.86 153.432 21.908 153.096 22.004C152.76 22.1 152.528 22.3 152.4 22.604C152.288 22.908 152.232 23.364 152.232 23.972C152.232 24.564 152.304 25.012 152.448 25.316C152.592 25.62 152.864 25.828 153.264 25.94C153.68 26.036 154.28 26.084 155.064 26.084ZM164.72 27.5V15.26H166.472L166.568 17.612H166.712C166.92 16.924 167.216 16.396 167.6 16.028C167.984 15.66 168.448 15.412 168.992 15.284C169.536 15.14 170.136 15.068 170.792 15.068V16.988C169.688 16.988 168.84 17.164 168.248 17.516C167.656 17.868 167.248 18.412 167.024 19.148C166.8 19.884 166.688 20.812 166.688 21.932V27.5H164.72ZM178.237 32.444C177.773 32.444 177.285 32.428 176.773 32.396C176.277 32.38 175.797 32.356 175.333 32.324C174.885 32.308 174.485 32.276 174.133 32.228V30.668C174.661 30.684 175.141 30.7 175.573 30.716C176.021 30.748 176.429 30.764 176.797 30.764C177.181 30.78 177.525 30.788 177.829 30.788C178.757 30.788 179.485 30.716 180.013 30.572C180.557 30.428 180.957 30.188 181.213 29.852C181.469 29.532 181.629 29.1 181.693 28.556C181.773 28.012 181.813 27.348 181.813 26.564V25.844H181.669C181.541 26.164 181.325 26.46 181.021 26.732C180.717 27.004 180.301 27.22 179.773 27.38C179.245 27.54 178.557 27.62 177.709 27.62C176.813 27.62 176.085 27.532 175.525 27.356C174.981 27.164 174.565 26.876 174.277 26.492C173.989 26.092 173.789 25.596 173.677 25.004C173.581 24.412 173.533 23.708 173.533 22.892V15.26H175.501V22.196C175.501 23.028 175.533 23.692 175.597 24.188C175.661 24.684 175.797 25.06 176.005 25.316C176.229 25.556 176.541 25.716 176.941 25.796C177.341 25.876 177.861 25.916 178.501 25.916C179.301 25.916 179.925 25.82 180.373 25.628C180.821 25.42 181.141 25.124 181.333 24.74C181.541 24.356 181.669 23.9 181.717 23.372C181.781 22.828 181.813 22.22 181.813 21.548V15.26H183.757V25.988C183.757 27.156 183.693 28.148 183.565 28.964C183.453 29.796 183.205 30.46 182.821 30.956C182.453 31.468 181.901 31.844 181.165 32.084C180.429 32.324 179.453 32.444 178.237 32.444Z" fill="#F9FAFB"/>
<defs>
<clipPath id="clip0_2_18">
<rect width="36" height="36" fill="white" transform="translate(0 1.5)"/>
</clipPath>
</defs>
</svg>
