<svg width="36" height="37" viewBox="0 0 36 37" fill="none" xmlns="http://www.w3.org/2000/svg">
<g clip-path="url(#clip0_34_237)">
<path d="M32.85 28.0062L27.0281 6.26562C26.8733 5.68944 26.4959 5.19836 25.979 4.90037C25.4622 4.60237 24.8481 4.52187 24.2719 4.67656L19.9266 5.84374L19.7859 5.88593C19.5763 5.61097 19.3062 5.38801 18.9964 5.23436C18.6867 5.08072 18.3457 5.00052 18 4.99999H13.5C13.1041 5.00106 12.7157 5.10786 12.375 5.30937C12.0343 5.10786 11.6459 5.00106 11.25 4.99999H6.75C6.15326 4.99999 5.58097 5.23705 5.15901 5.659C4.73705 6.08096 4.5 6.65326 4.5 7.24999V29.75C4.5 30.3467 4.73705 30.919 5.15901 31.341C5.58097 31.7629 6.15326 32 6.75 32H11.25C11.6459 31.9989 12.0343 31.8921 12.375 31.6906C12.7157 31.8921 13.1041 31.9989 13.5 32H18C18.5967 32 19.169 31.7629 19.591 31.341C20.0129 30.919 20.25 30.3467 20.25 29.75V15.7437L24.1594 30.3266C24.2868 30.8071 24.5697 31.2319 24.9641 31.5347C25.3584 31.8374 25.8419 32.0011 26.3391 32C26.5332 31.9966 26.7264 31.9731 26.9156 31.9297L31.2609 30.7625C31.8371 30.6076 32.3282 30.2303 32.6262 29.7134C32.9242 29.1965 33.0047 28.5825 32.85 28.0062V28.0062ZM24.8484 6.85624L25.7344 10.1047L21.3891 11.2719L20.5031 8.02343L24.8484 6.85624ZM18 7.24999V24.125H13.5V7.24999H18ZM11.25 7.24999V10.625H6.75V7.24999H11.25ZM18 29.75H13.5V26.375H18V29.75ZM30.6844 28.5828L26.3391 29.75L25.4531 26.4875L29.8125 25.3203L30.6844 28.5828Z" fill="#00BA44"/>
</g>
<defs>
<clipPath id="clip0_34_237">
<rect width="36" height="36" fill="white" transform="translate(0 0.5)"/>
</clipPath>
</defs>
</svg>
